# AST/ASF file generated using VICON BodyLanguage
# -----------------------------------------------
:version 1.10
:name VICON
:units
  mass 1.0
  length 0.45
  angle deg
:documentation
   .ast/.asf automatically generated from VICON data using
   VICON BodyBuilder and BodyLanguage model FoxedUp or BRILLIANT.MOD
:root
   order TX TY TZ RX RY RZ
   axis XYZ
   position 0 0 0  
   orientation 0 0 0 
:bonedata
  begin
     id 1 
     name lhipjoint
     direction 0.78388 -0.462562 0.414208 
     length 3.01181 
     axis 0 0 0  XYZ
  end
  begin
     id 2 
     name lfemur
     direction 0.34202 -0.939693 0  
     length 6.04673  
     axis 0 0 20  XYZ
    dof rx ry rz
    limits (-160.0 20.0)
           (-70.0 70.0)
           (-60.0 70.0)
  end
  begin
     id 3 
     name ltibia
     direction 0.34202 -0.939693 0   
     length 7.211   
     axis 0 0 20   XYZ
    dof rx
    limits (-10.0 170.0)
  end
  begin
     id 4 
     name lfoot
     direction 0.121887 -0.334882 0.934344   
     length 2.13567   
     axis -90 7.62852e-016 20   XYZ
    dof rx rz
    limits (-45.0 90.0)
           (-70.0 20.0)
  end
  begin
     id 5 
     name ltoes
     direction 1.53555e-011 -4.2179e-011 1   
     length 1.05957   
     axis -90 7.62852e-016 20   XYZ
    dof rx
    limits (-90.0 20.0)
  end
  begin
     id 6 
     name rhipjoint
     direction -0.769387 -0.475875 0.426129   
     length 2.92756  
     axis 0 0 0  XYZ 
  end
  begin
     id 7 
     name rfemur
     direction -0.34202 -0.939693 0   
     length 6.35468   
     axis 0 0 -20   XYZ
    dof rx ry rz
    limits (-160.0 20.0)
           (-70.0 70.0)
           (-70.0 60.0)
  end
  begin
     id 8 
     name rtibia
     direction -0.34202 -0.939693 0   
     length 7.37886   
     axis 0 0 -20   XYZ
    dof rx
    limits (-10.0 170.0)
 end
 begin
     id 9 
     name rfoot
     direction -0.101763 -0.279592 0.954711   
     length 2.21478  
     axis -90 -7.62852e-016 -20   XYZ
    dof rx rz
    limits (-45.0 90.0)
           (-20.0 70.0)
  end
  begin
     id 10 
     name rtoes
     direction -1.53494e-011 -4.21851e-011 1   
     length 1.10506   
     axis -90 -7.62852e-016 -20   XYZ
    dof rx
    limits (-90.0 20.0)
  end
  begin
     id 11 
     name lowerback
     direction 0.00747405 0.999267 0.0375481   
     length 2.13259   
     axis 0 0 0   XYZ
    dof rx ry rz
    limits (-20.0 45.0)
           (-30.0 30.0)
           (-30.0 30.0)
  end
  begin
     id 12 
     name upperback
     direction 0.00661626 0.996177 0.0871029   
     length 2.10528   
     axis 0 0 0   XYZ
    dof rx ry rz
    limits (-20.0 45.0)
           (-30.0 30.0)
           (-30.0 30.0)
  end
  begin
     id 13 
     name thorax
     direction 0.00320659 0.997679 0.0680167   
     length 2.11338   
     axis 0 0 0   XYZ
    dof rx ry rz
    limits (-20.0 45.0)
           (-30.0 30.0)
           (-30.0 30.0)
  end
  begin
     id 14 
     name lowerneck
     direction 0.0374841 0.973033 0.227602   
     length 1.42765   
     axis 0 0 0   XYZ
    dof rx ry rz
    limits (-20.0 45.0)
           (-30.0 30.0)
           (-30.0 30.0)
  end
  begin
     id 15 
     name upperneck
     direction 0.00481585 0.989155 -0.146795   
     length 1.47593   
     axis 0 0 0   XYZ
    dof rx ry rz
    limits (-20.0 45.0)
           (-30.0 30.0)
           (-30.0 30.0)
  end
  begin
     id 16
     name head
     direction -0.00292522 0.997206 -0.0746423  
     length 1.48116  
     axis 0 0 0   XYZ
    dof rx ry rz
    limits (-20.0 45.0)
           (-30.0 30.0)
           (-30.0 30.0)
  end
  begin
     id 17 
     name lclavicle
     direction 0.951444 0.305606 0.0368784  
     length 3.01855  
     axis 0 0 0   XYZ
    dof ry rz
    limits (-20.0 10.0)
           (0.0 20.0)
  end
  begin
     id 18 
     name lhumerus
     direction 1 -4.48977e-011 2.61664e-027   
     length 5.52731   
     axis 180 -30 -90   XYZ
    dof rx ry rz
    limits (-60.0 90.0)
           (-90.0 90.0)
           (-90.0 90.0)
  end
  begin
     id 19
     name lradius
     direction 1 -4.48944e-011 8.22157e-027   
     length 3.11059   
     axis 180 -30 -90   XYZ
    dof rx
    limits (-10.0 170.0)
  end
  begin
     id 20
     name lwrist
     direction 1 -4.48976e-011 1.5779e-026   
     length 1.5553   
     axis -1.15221e-014 90 90   XYZ
    dof ry
    limits (-180.0 0.0)
 end
  begin
     id 21 
     name lhand
     direction 1 -4.49025e-011 3.1558e-026   
     length 0.419626   
     axis -2.01367e-014 90 90   XYZ
    dof rx rz
    limits (-90.0 90.0)
           (-45.0 45.0)
  end
  begin
     id 22 
     name lfingers
     direction 1 -4.4904e-011 6.31161e-026   
     length 0.338313   
     axis -4.02734e-014 90 90   XYZ
    dof rx
    limits (0.0 90.0)
  end
  begin
     id 23
     name lthumb
     direction 0.707107 -6.35004e-011 0.707107   
     length 0.485752   
     axis -90 45 2.85299e-015   XYZ
    dof rx rz
    limits (-45.0 45.0)
           (-45.0 45.0)
  end
  begin
     id 24 
     name rclavicle
     direction -0.968876 0.223791 0.105816   
     length 3.04177  
     axis 0 0 0   XYZ 
    dof ry rz
    limits (-10.0 20.0)
           (-20.0 0.0)
  end
  begin
     id 25 
     name rhumerus
     direction -1 -4.48962e-011 -1.01384e-027  
     length 5.25396   
     axis 180 30 90   XYZ
    dof rx ry rz
    limits (-90.0 60.0)
           (-90.0 90.0)
           (-90.0 90.0)
  end
  begin
     id 26 
     name rradius
     direction -1 -4.48955e-011 8.88542e-027   
     length 3.10567   
     axis 180 30 90   XYZ
    dof rx
    limits (-10.0 170.0)
  end
  begin
     id 27 
     name rwrist
     direction -1 -4.48994e-011 1.5779e-026   
     length 1.55283   
     axis -1.15221e-014 -90 -90   XYZ
    dof ry
    limits (-180.0 0.0)
  end
  begin
     id 28
     name rhand
     direction -1 -4.48891e-011 3.1558e-026   
     length 0.498676   
     axis -2.01367e-014 -90 -90   XYZ
    dof rx rz
    limits (-90.0 90.0)
           (-45.0 45.0)
  end
  begin
     id 29
     name rfingers
     direction -1 -4.48972e-011 6.31161e-026   
     length 0.402045   
     axis -4.02734e-014 -90 -90   XYZ
    dof rx
    limits (0.0 90.0)
  end
  begin
     id 30
     name rthumb
     direction -0.707107 -6.34849e-011 0.707107   
     length 0.577259   
     axis -90 -45 -2.85299e-015   XYZ
    dof rx rz
    limits (-45.0 45.0)
           (-45.0 45.0)
  end
:hierarchy
  begin
    root lhipjoint rhipjoint lowerback
    lhipjoint lfemur
    lfemur ltibia
    ltibia lfoot
    lfoot ltoes
    rhipjoint rfemur
    rfemur rtibia
    rtibia rfoot
    rfoot rtoes
    lowerback upperback
    upperback thorax
    thorax lowerneck lclavicle rclavicle
    lowerneck upperneck
    upperneck head
    lclavicle lhumerus
    lhumerus lradius
    lradius lwrist
    lwrist lhand lthumb
    lhand lfingers
    rclavicle rhumerus
    rhumerus rradius
    rradius rwrist
    rwrist rhand rthumb
    rhand rfingers
  end

#!OML:ASF H:\Pregnant\Project 1\Capture day 1\Session 1\femalepreg.ASF
:FULLY-SPECIFIED
:DEGREES
1
root 2.55215 15.894 23.8936 171.017 -75.8046 -143.071
lowerback -13.1153 -1.90472 -8.16558
upperback -8.37993 -2.21216 1.06558
thorax -1.23631 -1.0132 5.46122
lowerneck -26.6969 -0.475486 2.82904
upperneck 25.0974 -5.58658 10.1748
head 13.2324 -0.879052 2.42414
rclavicle 2.39536e-014 -1.59028e-015
rhumerus -45.2452 -8.40527 -72.5397
rradius 37.9665
rwrist -3.92073
rhand -10.2971 -13.9843
rfingers 7.12502
rthumb 15.6975 -43.3676
lclavicle 2.39536e-014 -1.59028e-015
lhumerus -31.1366 -18.441 87.0177
lradius 36.3359
lwrist 41.1151
lhand -19.6618 -4.54509
lfingers 7.12502
lthumb 6.6663 25.33
rfemur -45.3042 24.8019 14.2046
rtibia 30.0185
rfoot -13.047 -5.08755
rtoes -0.133412
lfemur -40.2386 -8.01788 -10.8678
ltibia 30.0121
lfoot -12.1974 12.0333
ltoes -17.3881
2
root 2.55807 15.9047 23.8809 171.089 -75.7163 -143.146
lowerback -13.032 -1.92959 -8.21115
upperback -8.36971 -2.24567 1.1151
thorax -1.26252 -1.02555 5.53742
lowerneck -26.6686 -0.593794 2.59021
upperneck 25.144 -5.65417 10.1721
head 13.2526 -0.93106 2.45115
rclavicle 1.25234e-014 2.54444e-014
rhumerus -45.2578 -8.28176 -72.3831
rradius 38.2518
rwrist -4.08558
rhand -11.3798 -13.9629
rfingers 7.12502
rthumb 14.6546 -43.4251
lclavicle 1.25234e-014 2.54444e-014
lhumerus -30.9267 -18.0449 86.764
lradius 35.8271
lwrist 40.7988
lhand -19.9951 -4.48777
lfingers 7.12502
lthumb 6.34453 25.3972
rfemur -45.2423 24.5112 13.7909
rtibia 29.9835
rfoot -12.942 -6.01117
rtoes -0.696349
lfemur -40.0621 -7.63535 -10.9309
ltibia 29.7157
lfoot -12.0816 11.753
ltoes -17.6348
3
root 2.56397 15.9143 23.8675 171.262 -75.6072 -143.321
lowerback -12.9752 -1.97238 -8.29422
upperback -8.34397 -2.29532 1.20931
thorax -1.25338 -1.0452 5.67937
lowerneck -26.6747 -0.684611 2.34042
upperneck 25.1941 -5.66502 10.1314
head 13.2763 -0.962328 2.47652
rclavicle 7.25564e-014 -3.18055e-015
rhumerus -45.1686 -7.95416 -72.2492
rradius 38.4956
rwrist -4.29624
rhand -9.96764 -14.2132
rfingers 7.12502
rthumb 16.0148 -43.5713
lclavicle 7.25564e-014 -3.18055e-015
lhumerus -30.6116 -17.3517 86.5103
lradius 35.1925
lwrist 40.3731
lhand -20.1185 -4.51873
lfingers 7.12502
lthumb 6.22544 25.3698
rfemur -45.2578 24.5524 13.1131
rtibia 29.9239
rfoot -12.767 -7.12638
rtoes -0.3691
lfemur -39.8686 -7.73202 -10.7887
ltibia 29.4046
lfoot -11.8389 11.962
ltoes -18.058
4
root 2.5679 15.9252 23.8543 171.318 -75.5479 -143.442
lowerback -12.8808 -1.96366 -8.24476
upperback -8.30277 -2.29072 1.18193
thorax -1.26142 -1.04419 5.62441
lowerneck -26.6406 -0.743891 2.33032
upperneck 25.1835 -5.71013 10.0428
head 13.2625 -0.996333 2.4338
rclavicle -2.28602e-015 2.38542e-014
rhumerus -45.2131 -7.91644 -72.1925
rradius 38.8305
rwrist -4.46422
rhand -10.7674 -14.0762
rfingers 7.12502
rthumb 15.2446 -43.4945
lclavicle -2.28602e-015 2.38542e-014
lhumerus -30.5078 -17.0627 86.1302
lradius 34.8305
lwrist 40.3984
lhand -20.3603 -4.406
lfingers 7.12502
lthumb 5.99201 25.4893
rfemur -45.1306 24.5293 12.4608
rtibia 29.8523
rfoot -12.5053 -8.22255
rtoes -0.531749
lfemur -39.6177 -7.64787 -10.7663
ltibia 29.0994
lfoot -11.7289 11.916
ltoes -17.8715
5
root 2.57208 15.9345 23.841 171.374 -75.4752 -143.551
lowerback -12.7942 -1.97157 -8.23276
upperback -8.26422 -2.30412 1.20291
thorax -1.26346 -1.05001 5.63974
lowerneck -26.6257 -0.8134 2.22372
upperneck 25.193 -5.73898 9.97785
head 13.2628 -1.0276 2.42064
rclavicle 3.32964e-014 3.18055e-014
rhumerus -45.2104 -7.77799 -72.1082
rradius 39.1339
rwrist -4.64431
rhand -10.9027 -14.0967
rfingers 7.12502
rthumb 15.1143 -43.5249
lclavicle 3.32964e-014 3.18055e-014
lhumerus -30.3263 -16.5964 85.7988
lradius 34.3648
lwrist 40.2599
lhand -20.5583 -4.32978
lfingers 7.12502
lthumb 5.80083 25.5708
rfemur -44.9937 24.3879 11.9064
rtibia 29.7623
rfoot -12.2289 -9.18502
rtoes -0.749658
lfemur -39.3826 -7.58065 -10.7216
ltibia 28.8015
lfoot -11.5849 11.9109
ltoes -17.9288
6
root 2.57558 15.9437 23.8273 171.407 -75.4059 -143.648
lowerback -12.7077 -1.96621 -8.19394
upperback -8.22107 -2.30189 1.20633
thorax -1.26382 -1.04937 5.62304
lowerneck -26.6039 -0.873226 2.16276
upperneck 25.1853 -5.76774 9.90277
head 13.2533 -1.0567 2.3953
rclavicle -2.05742e-014 6.36111e-015
rhumerus -45.2254 -7.67554 -72.0424
rradius 39.4454
rwrist -4.81083
rhand -11.0228 -14.1035
rfingers 7.12502
rthumb 14.9986 -43.5403
lclavicle -2.05742e-014 6.36111e-015
lhumerus -30.1632 -16.1525 85.4463
lradius 33.9212
lwrist 40.1844
lhand -20.7342 -4.22868
lfingers 7.12502
lthumb 5.63101 25.6765
rfemur -44.8078 24.1892 11.3866
rtibia 29.6488
rfoot -11.9087 -10.0512
rtoes -0.952461
lfemur -39.1333 -7.52132 -10.6763
ltibia 28.5078
lfoot -11.4504 11.9055
ltoes -17.9509
7
root 2.57844 15.9526 23.8131 171.427 -75.337 -143.742
lowerback -12.6236 -1.95721 -8.14213
upperback -8.17425 -2.29536 1.2135
thorax -1.25968 -1.04711 5.60335
lowerneck -26.5816 -0.920046 2.11355
upperneck 25.1677 -5.77843 9.81985
head 13.2381 -1.07798 2.36817
rclavicle -5.76476e-015 -3.18055e-015
rhumerus -45.2432 -7.58152 -71.9743
rradius 39.7611
rwrist -4.95397
rhand -11.3251 -14.0693
rfingers 7.12502
rthumb 14.7073 -43.5276
lclavicle -5.76476e-015 -3.18055e-015
lhumerus -30.0196 -15.6905 85.091
lradius 33.4994
lwrist 40.163
lhand -20.9145 -4.10671
lfingers 7.12502
lthumb 5.45686 25.803
rfemur -44.5788 23.9076 10.9195
rtibia 29.5237
rfoot -11.557 -10.7895
rtoes -1.12919
lfemur -38.8756 -7.45188 -10.6364
ltibia 28.2255
lfoot -11.3309 11.8889
ltoes -17.9464
8
root 2.58086 15.9616 23.7982 171.458 -75.2675 -143.851
lowerback -12.5461 -1.94616 -8.08486
upperback -8.12561 -2.28587 1.22737
thorax -1.25044 -1.04361 5.58783
lowerneck -26.5579 -0.95571 2.06352
upperneck 25.1404 -5.76993 9.73422
head 13.2174 -1.09148 2.34363
rclavicle -9.34288e-015 9.54166e-015
rhumerus -45.2583 -7.48023 -71.9038
rradius 40.0746
rwrist -5.08023
rhand -11.5777 -14.0305
rfingers 7.12502
rthumb 14.4639 -43.5064
lclavicle -9.34288e-015 9.54166e-015
lhumerus -29.8893 -15.2004 84.7386
lradius 33.0913
lwrist 40.1764
lhand -21.0858 -3.96551
lfingers 7.12502
lthumb 5.29153 25.9484
rfemur -44.3246 23.5681 10.4854
rtibia 29.393
rfoot -11.1858 -11.4209
rtoes -1.26022
lfemur -38.61 -7.3505 -10.613
ltibia 27.9437
lfoot -11.2173 11.84
ltoes -17.9693
9
root 2.58302 15.9705 23.7825 171.514 -75.1976 -143.984
lowerback -12.4798 -1.93565 -8.02664
upperback -8.07747 -2.27641 1.24877
thorax -1.23554 -1.04031 5.57944
lowerneck -26.5314 -0.978553 2.01268
upperneck 25.1051 -5.74015 9.64589
head 13.1915 -1.09627 2.3221
rclavicle 5.27773e-014 -3.02153e-014
rhumerus -45.2714 -7.37273 -71.8296
rradius 40.3848
rwrist -5.18604
rhand -11.8103 -13.9695
rfingers 7.12502
rthumb 14.2398 -43.4613
lclavicle 5.27773e-014 -3.02153e-014
lhumerus -29.7861 -14.6985 84.388
lradius 32.7129
lwrist 40.2289
lhand -21.257 -3.80695
lfingers 7.12502
lthumb 5.12617 26.111
rfemur -44.0664 23.2103 10.0534
rtibia 29.267
rfoot -10.8208 -11.9773
rtoes -1.22001
lfemur -38.3412 -7.26165 -10.587
ltibia 27.6597
lfoot -11.0999 11.8058
ltoes -18.0057
10
root 2.58513 15.979 23.766 171.602 -75.1342 -144.148
lowerback -12.4218 -1.92781 -7.97381
upperback -8.02968 -2.26938 1.27807
thorax -1.21589 -1.0381 5.58196
lowerneck -26.5041 -0.990424 1.95905
upperneck 25.0635 -5.69098 9.55401
head 13.1619 -1.09333 2.30328
rclavicle -9.93923e-016 -2.70347e-014
rhumerus -45.2806 -7.26133 -71.7463
rradius 40.6888
rwrist -5.27077
rhand -11.9824 -13.9113
rfingers 7.12502
rthumb 14.074 -43.4147
lclavicle -9.93923e-016 -2.70347e-014
lhumerus -29.7034 -14.1825 84.044
lradius 32.3592
lwrist 40.309
lhand -21.4331 -3.63833
lfingers 7.12502
lthumb 4.95617 26.2837
rfemur -43.814 22.8569 9.60959
rtibia 29.1547
rfoot -10.4585 -12.5068
rtoes -1.12316
lfemur -38.0714 -7.18381 -10.5651
ltibia 27.3706
lfoot -10.9754 11.7792
ltoes -18.0682
11
root 2.58728 15.987 23.7483 171.721 -75.0812 -144.346
lowerback -12.3687 -1.92336 -7.92894
upperback -7.98183 -2.2657 1.31176
thorax -1.19287 -1.03736 5.5931
lowerneck -26.4822 -0.992373 1.90348
upperneck 25.0221 -5.62718 9.46261
head 13.1327 -1.08373 2.28789
rclavicle 1.78906e-015 1.59028e-015
rhumerus -45.2864 -7.14122 -71.6643
rradius 40.9847
rwrist -5.35568
rhand -12.0605 -13.8718
rfingers 7.12502
rthumb 13.9987 -43.3804
lclavicle 1.78906e-015 1.59028e-015
lhumerus -29.6463 -13.6734 83.7049
lradius 32.0404
lwrist 40.417
lhand -21.606 -3.45283
lfingers 7.12502
lthumb 4.78925 26.473
rfemur -43.5663 22.5041 9.16031
rtibia 29.0629
rfoot -10.1023 -13.0184
rtoes -1.06141
lfemur -37.7987 -7.13673 -10.5425
ltibia 27.0744
lfoot -10.8365 11.7763
ltoes -18.1612
12
root 2.58953 15.9944 23.7295 171.872 -75.0454 -144.578
lowerback -12.3164 -1.92254 -7.89292
upperback -7.93436 -2.26597 1.34211
thorax -1.16932 -1.0384 5.6052
lowerneck -26.4635 -0.983472 1.86268
upperneck 24.983 -5.5542 9.36884
head 13.1044 -1.06879 2.27094
rclavicle -1.90833e-014 -2.70347e-014
rhumerus -45.296 -7.03496 -71.5842
rradius 41.2698
rwrist -5.42217
rhand -12.0214 -13.8554
rfingers 7.12502
rthumb 14.0364 -43.3614
lclavicle -1.90833e-014 -2.70347e-014
lhumerus -29.6052 -13.168 83.3649
lradius 31.7452
lwrist 40.5277
lhand -21.7653 -3.26365
lfingers 7.12502
lthumb 4.63543 26.6656
rfemur -43.3213 22.1533 8.70155
rtibia 28.9908
rfoot -9.76525 -13.5125
rtoes -0.985071
lfemur -37.5225 -7.10964 -10.5293
ltibia 26.769
lfoot -10.6878 11.7794
ltoes -18.2755
